# AST/ASF file generated using VICON BodyLanguage
# -----------------------------------------------
:version 1.10
:name VICON
:units
  mass 1.0
  length 0.45
  angle deg
:documentation
   .ast/.asf automatically generated from VICON data using
   VICON BodyBuilder and BodyLanguage model FoxedUp or BRILLIANT.MOD
:root
   order TX TY TZ RX RY RZ
   axis XYZ
   position 0 0 0  
   orientation 0 0 0 
:bonedata
  begin
     id 1 
     name lhipjoint
     direction 0.623529 -0.717805 0.309788 
     length 2.23224 
     axis 0 0 0  XYZ
  end
  begin
     id 2 
     name lfemur
     direction 0.34202 -0.939693 0  
     length 7.11402  
     axis 0 0 20  XYZ
    dof rx ry rz
    limits (-160.0 20.0)
           (-70.0 70.0)
           (-60.0 70.0)
  end
  begin
     id 3 
     name ltibia
     direction 0.34202 -0.939693 0   
     length 6.78496   
     axis 0 0 20   XYZ
    dof rx
    limits (-10.0 170.0)
  end
  begin
     id 4 
     name lfoot
     direction 0.125078 -0.343648 0.930732   
     length 1.84054   
     axis -90 7.62852e-016 20   XYZ
    dof rx rz
    limits (-45.0 90.0)
           (-70.0 20.0)
  end
  begin
     id 5 
     name ltoes
     direction 1.53565e-011 -4.21893e-011 1   
     length 0.916474   
     axis -90 7.62852e-016 20   XYZ
    dof rx
    limits (-90.0 20.0)
  end
  begin
     id 6 
     name rhipjoint
     direction -0.564688 -0.757748 0.327026   
     length 2.11457  
     axis 0 0 0  XYZ 
  end
  begin
     id 7 
     name rfemur
     direction -0.34202 -0.939693 0   
     length 7.14609   
     axis 0 0 -20   XYZ
    dof rx ry rz
    limits (-160.0 20.0)
           (-70.0 70.0)
           (-70.0 60.0)
  end
  begin
     id 8 
     name rtibia
     direction -0.34202 -0.939693 0   
     length 6.78101   
     axis 0 0 -20   XYZ
    dof rx
    limits (-10.0 170.0)
 end
 begin
     id 9 
     name rfoot
     direction -0.0992671 -0.272734 0.956955   
     length 1.96168  
     axis -90 -7.62852e-016 -20   XYZ
    dof rx rz
    limits (-45.0 90.0)
           (-20.0 70.0)
  end
  begin
     id 10 
     name rtoes
     direction -1.5356e-011 -4.21891e-011 1   
     length 0.982933   
     axis -90 -7.62852e-016 -20   XYZ
    dof rx
    limits (-90.0 20.0)
  end
  begin
     id 11 
     name lowerback
     direction -0.00596953 0.998668 0.0512524   
     length 1.87557   
     axis 0 0 0   XYZ
    dof rx ry rz
    limits (-20.0 45.0)
           (-30.0 30.0)
           (-30.0 30.0)
  end
  begin
     id 12 
     name upperback
     direction 0.00584879 0.999652 0.0257308   
     length 1.87883   
     axis 0 0 0   XYZ
    dof rx ry rz
    limits (-20.0 45.0)
           (-30.0 30.0)
           (-30.0 30.0)
  end
  begin
     id 13 
     name thorax
     direction 0.010104 0.999947 0.00178881   
     length 1.87779   
     axis 0 0 0   XYZ
    dof rx ry rz
    limits (-20.0 45.0)
           (-30.0 30.0)
           (-30.0 30.0)
  end
  begin
     id 14 
     name lowerneck
     direction 0.0120771 0.995934 -0.0892773   
     length 1.40897   
     axis 0 0 0   XYZ
    dof rx ry rz
    limits (-20.0 45.0)
           (-30.0 30.0)
           (-30.0 30.0)
  end
  begin
     id 15 
     name upperneck
     direction -0.030568 0.999465 -0.0116366   
     length 1.38661   
     axis 0 0 0   XYZ
    dof rx ry rz
    limits (-20.0 45.0)
           (-30.0 30.0)
           (-30.0 30.0)
  end
  begin
     id 16
     name head
     direction -0.0170715 0.999854 -0.00104426  
     length 1.47052  
     axis 0 0 0   XYZ
    dof rx ry rz
    limits (-20.0 45.0)
           (-30.0 30.0)
           (-30.0 30.0)
  end
  begin
     id 17 
     name lclavicle
     direction 0.977763 0.206143 0.038532  
     length 3.02424  
     axis 0 0 0   XYZ
    dof ry rz
    limits (-20.0 10.0)
           (0.0 20.0)
  end
  begin
     id 18 
     name lhumerus
     direction 1 -4.48965e-011 -2.62654e-027   
     length 4.68382   
     axis 180 -30 -90   XYZ
    dof rx ry rz
    limits (-60.0 90.0)
           (-90.0 90.0)
           (-90.0 90.0)
  end
  begin
     id 19
     name lradius
     direction 1 -4.48973e-011 -1.54954e-027   
     length 2.98124   
     axis 180 -30 -90   XYZ
    dof rx
    limits (-10.0 170.0)
  end
  begin
     id 20
     name lwrist
     direction 1 -4.48959e-011 7.20928e-028   
     length 1.49062   
     axis -5.52449e-016 90 90   XYZ
    dof ry
    limits (-180.0 0.0)
 end
  begin
     id 21 
     name lhand
     direction 1 -4.48971e-011 1.44186e-027   
     length 0.707595   
     axis -9.20027e-016 90 90   XYZ
    dof rx rz
    limits (-90.0 90.0)
           (-45.0 45.0)
  end
  begin
     id 22 
     name lfingers
     direction 1 -4.48985e-011 2.88371e-027   
     length 0.570481   
     axis -1.84005e-015 90 90   XYZ
    dof rx
    limits (0.0 90.0)
  end
  begin
     id 23
     name lthumb
     direction 0.707107 -6.34929e-011 0.707107   
     length 0.819101   
     axis -90 45 2.85299e-015   XYZ
    dof rx rz
    limits (-45.0 45.0)
           (-45.0 45.0)
  end
  begin
     id 24 
     name rclavicle
     direction -0.958661 0.284411 -0.00895327   
     length 3.11921  
     axis 0 0 0   XYZ 
    dof ry rz
    limits (-10.0 20.0)
           (-20.0 0.0)
  end
  begin
     id 25 
     name rhumerus
     direction -1 -4.48963e-011 -4.22193e-027  
     length 4.75876   
     axis 180 30 90   XYZ
    dof rx ry rz
    limits (-90.0 60.0)
           (-90.0 90.0)
           (-90.0 90.0)
  end
  begin
     id 26 
     name rradius
     direction -1 -4.48968e-011 -1.07616e-027   
     length 2.93293   
     axis 180 30 90   XYZ
    dof rx
    limits (-10.0 170.0)
  end
  begin
     id 27 
     name rwrist
     direction -1 -4.48965e-011 7.20928e-028   
     length 1.46647   
     axis -5.52449e-016 -90 -90   XYZ
    dof ry
    limits (-180.0 0.0)
  end
  begin
     id 28
     name rhand
     direction -1 -4.48971e-011 1.44186e-027   
     length 0.831748   
     axis -9.20027e-016 -90 -90   XYZ
    dof rx rz
    limits (-90.0 90.0)
           (-45.0 45.0)
  end
  begin
     id 29
     name rfingers
     direction -1 -4.48961e-011 2.88371e-027   
     length 0.670577   
     axis -1.84005e-015 -90 -90   XYZ
    dof rx
    limits (0.0 90.0)
  end
  begin
     id 30
     name rthumb
     direction -0.707107 -6.34929e-011 0.707107   
     length 0.962818   
     axis -90 -45 -2.85299e-015   XYZ
    dof rx rz
    limits (-45.0 45.0)
           (-45.0 45.0)
  end
:hierarchy
  begin
    root lhipjoint rhipjoint lowerback
    lhipjoint lfemur
    lfemur ltibia
    ltibia lfoot
    lfoot ltoes
    rhipjoint rfemur
    rfemur rtibia
    rtibia rfoot
    rfoot rtoes
    lowerback upperback
    upperback thorax
    thorax lowerneck lclavicle rclavicle
    lowerneck upperneck
    upperneck head
    lclavicle lhumerus
    lhumerus lradius
    lradius lwrist
    lwrist lhand lthumb
    lhand lfingers
    rclavicle rhumerus
    rhumerus rradius
    rradius rwrist
    rwrist rhand rthumb
    rhand rfingers
  end

#!OML:ASF E:\id_vita\Project 1\Capture day 1\Session 1\Female.ASF
:FULLY-SPECIFIED
:DEGREES
41
root 8.58325 27.085 0.318892 -143.524 -87.1379 160.819
lowerback -13.1709 -0.447234 -3.57144
upperback -4.31582 -0.303224 -0.844272
thorax 2.85219 -0.232623 1.08284
lowerneck 0.462941 -1.71112 -6.9807
upperneck 6.44338 -2.76312 8.39463
head 2.2545 -1.41089 3.99371
rclavicle -4.72114e-016 4.37326e-015
rhumerus 12.824 -14.124 -40.8387
rradius 123.036
rwrist -2.31042
rhand -27.4964 11.2718
rfingers 7.12502
rthumb -0.899564 -18.7061
lclavicle -4.72114e-016 4.37326e-015
lhumerus 35.4511 14.4926 30.3528
lradius 102.09
lwrist -7.84999
lhand -27.8775 25.0921
lfingers 7.12502
lthumb -1.26757 55.0681
rfemur -30.098 6.40719 17.393
rtibia 32.9471
rfoot -10.9463 -19.814
rtoes -9.23249
lfemur -29.3508 -6.17774 -19.6608
ltibia 33.9128
lfoot -20.1963 14.775
ltoes 8.07517
42
root 8.60245 27.0665 0.322522 -144.588 -87.2212 162.013
lowerback -13.0154 -0.43896 -3.44423
upperback -4.22899 -0.307591 -0.797983
thorax 2.85948 -0.232764 1.05945
lowerneck 0.0986731 -1.77389 -7.00094
upperneck 6.41206 -2.81084 8.27251
head 2.31315 -1.42715 3.95146
rclavicle 2.41026e-015 1.98785e-014
rhumerus 13.1683 -14.1007 -40.9547
rradius 123.041
rwrist -2.39942
rhand -27.2979 11.1029
rfingers 7.12502
rthumb -0.707816 -18.8757
lclavicle 2.41026e-015 1.98785e-014
lhumerus 35.7572 14.3971 30.7823
lradius 101.884
lwrist -8.02594
lhand -27.8402 24.9207
lfingers 7.12502
lthumb -1.23158 54.8969
rfemur -30.5776 5.97958 17.5609
rtibia 33.462
rfoot -11.2 -19.554
rtoes -9.33271
lfemur -29.8879 -5.93562 -19.5953
ltibia 34.5429
lfoot -20.4181 14.5491
ltoes 8.07397
43
root 8.62522 27.0461 0.324365 -143.822 -87.2862 161.445
lowerback -12.856 -0.440505 -3.41581
upperback -4.15948 -0.312582 -0.808223
thorax 2.84606 -0.233522 1.0327
lowerneck -0.411616 -1.88195 -6.60706
upperneck 6.41112 -2.90777 7.91434
head 2.39673 -1.45974 3.74171
rclavicle 2.36057e-015 -2.38542e-015
rhumerus 13.2373 -14.1409 -40.9487
rradius 123.12
rwrist -2.61336
rhand -27.1247 10.9441
rfingers 7.12502
rthumb -0.5405 -19.035
lclavicle 2.36057e-015 -2.38542e-015
lhumerus 35.9107 14.3602 30.9616
lradius 101.9
lwrist -7.9435
lhand -28.0778 24.8157
lfingers 7.12502
lthumb -1.46103 54.7904
rfemur -31.1975 5.59672 17.6231
rtibia 34.0448
rfoot -11.559 -19.3088
rtoes -9.07519
lfemur -30.5583 -5.66343 -19.6073
ltibia 35.1937
lfoot -20.5855 14.234
ltoes 7.86153
44
root 8.64707 27.027 0.327888 -143.265 -87.3051 161.15
lowerback -12.75 -0.416827 -3.37094
upperback -4.18629 -0.290848 -0.860383
thorax 2.75932 -0.221742 0.957053
lowerneck -0.389524 -1.75803 -6.49051
upperneck 6.06932 -2.73571 8.11254
head 2.26612 -1.36752 3.79042
rclavicle -6.65929e-015 1.74931e-014
rhumerus 13.0369 -13.9843 -40.9047
rradius 123.106
rwrist -2.46184
rhand -27.77 11.1385
rfingers 7.12502
rthumb -1.1638 -18.8381
lclavicle -6.65929e-015 1.74931e-014
lhumerus 35.8187 14.3235 30.9812
lradius 102.035
lwrist -7.92483
lhand -28.2476 25.0004
lfingers 7.12502
lthumb -1.62508 54.974
rfemur -31.9117 5.20117 17.6658
rtibia 34.7075
rfoot -11.9712 -19.0354
rtoes -9.11892
lfemur -31.2912 -5.37862 -19.6428
ltibia 35.8487
lfoot -20.7483 13.9745
ltoes 7.52606
45
root 8.66676 27.0083 0.332981 -142.001 -87.2303 160.185
lowerback -12.7354 -0.434611 -3.35591
upperback -4.23277 -0.319214 -0.917562
thorax 2.70355 -0.23623 0.885042
lowerneck 0.201848 -1.61332 -6.79699
upperneck 5.37622 -2.55252 8.61265
head 1.92999 -1.2881 4.02946
rclavicle 4.24902e-015 1.63003e-014
rhumerus 13.0502 -13.6191 -41.0419
rradius 123.001
rwrist -2.12288
rhand -27.6402 10.7524
rfingers 7.12502
rthumb -1.03846 -19.2248
lclavicle 4.24902e-015 1.63003e-014
lhumerus 35.5584 14.4514 30.862
lradius 102.186
lwrist -7.84963
lhand -28.4732 25.1838
lfingers 7.12502
lthumb -1.84292 55.1556
rfemur -32.6789 4.74678 17.6218
rtibia 35.4236
rfoot -12.2742 -18.7449
rtoes -9.56792
lfemur -32.0439 -5.05807 -19.8016
ltibia 36.5415
lfoot -20.9625 13.7788
ltoes 7.28715
